{
	"asset":{
		"generator":"Khronos glTF Blender I/O v4.4.56",
		"version":"2.0"
	},
	"scene":0,
	"scenes":[
		{
			"name":"Scene",
			"nodes":[
				0,
				1,
				2,
				3,
				4,
				5,
				6,
				7,
				8,
				9,
				10,
				11,
				12,
				13,
				14,
				15,
				16,
				17,
				18,
				19,
				20,
				21,
				22,
				23,
				24,
				25
			]
		}
	],
	"nodes":[
		{
			"mesh":0,
			"name":"Cube.002",
			"translation":[
				-11.989357948303223,
				0,
				-5.768911838531494
			]
		},
		{
			"mesh":1,
			"name":"Cube",
			"rotation":[
				0,
				0.7071068286895752,
				0,
				0.7071068286895752
			],
			"translation":[
				-2.288506507873535,
				0,
				11.98592758178711
			]
		},
		{
			"mesh":2,
			"name":"Cube.001",
			"translation":[
				-11.989357948303223,
				0,
				2.2410387992858887
			]
		},
		{
			"mesh":3,
			"name":"Cube.003",
			"translation":[
				-11.989357948303223,
				0,
				-9.773885726928711
			]
		},
		{
			"mesh":4,
			"name":"Cube.004",
			"translation":[
				-11.989357948303223,
				0,
				10.250986099243164
			]
		},
		{
			"mesh":5,
			"name":"Cube.005",
			"translation":[
				-11.989357948303223,
				0,
				-1.7639374732971191
			]
		},
		{
			"mesh":6,
			"name":"Cube.006",
			"translation":[
				-11.989357948303223,
				0,
				10.250986099243164
			]
		},
		{
			"mesh":7,
			"name":"Cube.007",
			"translation":[
				-11.989357948303223,
				0,
				6.246012210845947
			]
		},
		{
			"mesh":8,
			"name":"Cube.008",
			"rotation":[
				0,
				0.7071068286895752,
				0,
				0.7071068286895752
			],
			"translation":[
				-6.29348087310791,
				0,
				11.98592758178711
			]
		},
		{
			"mesh":9,
			"name":"Cube.009",
			"rotation":[
				0,
				0.7071068286895752,
				0,
				0.7071068286895752
			],
			"translation":[
				-10.298454284667969,
				0,
				11.98592758178711
			]
		},
		{
			"mesh":10,
			"name":"Cube.010",
			"rotation":[
				0,
				0.7071068286895752,
				0,
				0.7071068286895752
			],
			"translation":[
				1.7164679765701294,
				0,
				11.98592758178711
			]
		},
		{
			"mesh":11,
			"name":"Cube.011",
			"rotation":[
				0,
				0.7071068286895752,
				0,
				0.7071068286895752
			],
			"translation":[
				5.721442222595215,
				0,
				11.985925674438477
			]
		},
		{
			"mesh":12,
			"name":"Cube.016",
			"rotation":[
				0,
				0.7071068286895752,
				0,
				0.7071068286895752
			],
			"translation":[
				9.726422309875488,
				0,
				11.98592758178711
			]
		},
		{
			"mesh":13,
			"name":"Cube.021",
			"rotation":[
				0,
				-1,
				0,
				1.6292068494294654e-07
			],
			"translation":[
				11.44045352935791,
				0,
				-5.745785236358643
			]
		},
		{
			"mesh":14,
			"name":"Cube.022",
			"rotation":[
				0,
				-1,
				0,
				1.6292068494294654e-07
			],
			"translation":[
				11.44045352935791,
				0,
				2.2641654014587402
			]
		},
		{
			"mesh":15,
			"name":"Cube.023",
			"rotation":[
				0,
				-1,
				0,
				1.6292068494294654e-07
			],
			"translation":[
				11.44045352935791,
				0,
				-9.75075912475586
			]
		},
		{
			"mesh":16,
			"name":"Cube.024",
			"rotation":[
				0,
				-1,
				0,
				1.6292068494294654e-07
			],
			"translation":[
				11.44045352935791,
				0,
				10.274116516113281
			]
		},
		{
			"mesh":17,
			"name":"Cube.025",
			"rotation":[
				0,
				-1,
				0,
				1.6292068494294654e-07
			],
			"translation":[
				11.44045352935791,
				0,
				-1.7408089637756348
			]
		},
		{
			"mesh":18,
			"name":"Cube.026",
			"rotation":[
				0,
				-1,
				0,
				1.6292068494294654e-07
			],
			"translation":[
				11.44045352935791,
				0,
				6.269141674041748
			]
		},
		{
			"mesh":19,
			"name":"Cube.012",
			"translation":[
				-1.2423962354660034,
				-2,
				6.369837284088135
			]
		},
		{
			"mesh":20,
			"name":"Cube.013",
			"rotation":[
				0,
				-0.7071068286895752,
				0,
				0.7071068286895752
			],
			"translation":[
				-10.296236038208008,
				0,
				-11.70291805267334
			]
		},
		{
			"mesh":21,
			"name":"Cube.014",
			"rotation":[
				0,
				-0.7071068286895752,
				0,
				0.7071068286895752
			],
			"translation":[
				-6.291257858276367,
				0,
				-11.70291805267334
			]
		},
		{
			"mesh":22,
			"name":"Cube.015",
			"rotation":[
				0,
				-0.7071068286895752,
				0,
				0.7071068286895752
			],
			"translation":[
				-2.286283493041992,
				0,
				-11.70291805267334
			]
		},
		{
			"mesh":23,
			"name":"Cube.017",
			"rotation":[
				0,
				-0.7071068286895752,
				0,
				0.7071068286895752
			],
			"translation":[
				9.72864055633545,
				0,
				-11.70291805267334
			]
		},
		{
			"mesh":24,
			"name":"Cube.018",
			"rotation":[
				0,
				-0.7071068286895752,
				0,
				0.7071068286895752
			],
			"translation":[
				5.723667144775391,
				0,
				-11.70291805267334
			]
		},
		{
			"mesh":25,
			"name":"Cube.019",
			"rotation":[
				0,
				-0.7071068286895752,
				0,
				0.7071068286895752
			],
			"translation":[
				1.7186908721923828,
				0,
				-11.70291805267334
			]
		}
	],
	"materials":[
		{
			"doubleSided":true,
			"name":"Material.013",
			"pbrMetallicRoughness":{
				"baseColorFactor":[
					0.800000011920929,
					0.800000011920929,
					0.800000011920929,
					1
				],
				"metallicFactor":0,
				"roughnessFactor":0.5
			}
		},
		{
			"doubleSided":true,
			"name":"brickwall.001",
			"normalTexture":{
				"index":0
			},
			"pbrMetallicRoughness":{
				"baseColorTexture":{
					"index":1
				},
				"metallicFactor":0,
				"roughnessFactor":0.5
			}
		},
		{
			"doubleSided":true,
			"name":"Material",
			"pbrMetallicRoughness":{
				"baseColorFactor":[
					0.800000011920929,
					0.800000011920929,
					0.800000011920929,
					1
				],
				"metallicFactor":0,
				"roughnessFactor":0.5
			}
		},
		{
			"doubleSided":true,
			"name":"Material.001",
			"pbrMetallicRoughness":{
				"baseColorFactor":[
					0.800000011920929,
					0.800000011920929,
					0.800000011920929,
					1
				],
				"metallicFactor":0,
				"roughnessFactor":0.5
			}
		},
		{
			"doubleSided":true,
			"name":"bricks2",
			"normalTexture":{
				"index":2
			},
			"pbrMetallicRoughness":{
				"baseColorTexture":{
					"index":3
				},
				"metallicFactor":0,
				"roughnessFactor":0.5
			}
		},
		{
			"doubleSided":true,
			"name":"Material.003",
			"pbrMetallicRoughness":{
				"baseColorFactor":[
					0.800000011920929,
					0.800000011920929,
					0.800000011920929,
					1
				],
				"metallicFactor":0,
				"roughnessFactor":0.5
			}
		},
		{
			"doubleSided":true,
			"name":"Material.004",
			"pbrMetallicRoughness":{
				"baseColorFactor":[
					0.800000011920929,
					0.800000011920929,
					0.800000011920929,
					1
				],
				"metallicFactor":0,
				"roughnessFactor":0.5
			}
		},
		{
			"doubleSided":true,
			"name":"Material.005",
			"pbrMetallicRoughness":{
				"baseColorFactor":[
					0.800000011920929,
					0.800000011920929,
					0.800000011920929,
					1
				],
				"metallicFactor":0,
				"roughnessFactor":0.5
			}
		},
		{
			"doubleSided":true,
			"name":"Material.006",
			"pbrMetallicRoughness":{
				"baseColorFactor":[
					0.800000011920929,
					0.800000011920929,
					0.800000011920929,
					1
				],
				"metallicFactor":0,
				"roughnessFactor":0.5
			}
		},
		{
			"doubleSided":true,
			"name":"Material.007",
			"pbrMetallicRoughness":{
				"baseColorFactor":[
					0.800000011920929,
					0.800000011920929,
					0.800000011920929,
					1
				],
				"metallicFactor":0,
				"roughnessFactor":0.5
			}
		},
		{
			"doubleSided":true,
			"name":"Material.008",
			"pbrMetallicRoughness":{
				"baseColorFactor":[
					0.800000011920929,
					0.800000011920929,
					0.800000011920929,
					1
				],
				"metallicFactor":0,
				"roughnessFactor":0.5
			}
		},
		{
			"doubleSided":true,
			"name":"Material.009",
			"pbrMetallicRoughness":{
				"baseColorFactor":[
					0.800000011920929,
					0.800000011920929,
					0.800000011920929,
					1
				],
				"metallicFactor":0,
				"roughnessFactor":0.5
			}
		},
		{
			"doubleSided":true,
			"name":"Material.010",
			"pbrMetallicRoughness":{
				"baseColorFactor":[
					0.800000011920929,
					0.800000011920929,
					0.800000011920929,
					1
				],
				"metallicFactor":0,
				"roughnessFactor":0.5
			}
		},
		{
			"doubleSided":true,
			"name":"Material.011",
			"pbrMetallicRoughness":{
				"baseColorFactor":[
					0.800000011920929,
					0.800000011920929,
					0.800000011920929,
					1
				],
				"metallicFactor":0,
				"roughnessFactor":0.5
			}
		},
		{
			"doubleSided":true,
			"name":"Material.021",
			"pbrMetallicRoughness":{
				"baseColorFactor":[
					0.800000011920929,
					0.800000011920929,
					0.800000011920929,
					1
				],
				"metallicFactor":0,
				"roughnessFactor":0.5
			}
		},
		{
			"doubleSided":true,
			"name":"Material.023",
			"pbrMetallicRoughness":{
				"baseColorFactor":[
					0.800000011920929,
					0.800000011920929,
					0.800000011920929,
					1
				],
				"metallicFactor":0,
				"roughnessFactor":0.5
			}
		},
		{
			"doubleSided":true,
			"name":"Material.024",
			"pbrMetallicRoughness":{
				"baseColorFactor":[
					0.800000011920929,
					0.800000011920929,
					0.800000011920929,
					1
				],
				"metallicFactor":0,
				"roughnessFactor":0.5
			}
		},
		{
			"doubleSided":true,
			"name":"Material.025",
			"pbrMetallicRoughness":{
				"baseColorFactor":[
					0.800000011920929,
					0.800000011920929,
					0.800000011920929,
					1
				],
				"metallicFactor":0,
				"roughnessFactor":0.5
			}
		},
		{
			"doubleSided":true,
			"name":"Material.026",
			"pbrMetallicRoughness":{
				"baseColorFactor":[
					0.800000011920929,
					0.800000011920929,
					0.800000011920929,
					1
				],
				"metallicFactor":0,
				"roughnessFactor":0.5
			}
		},
		{
			"doubleSided":true,
			"name":"Material.027",
			"pbrMetallicRoughness":{
				"baseColorFactor":[
					0.800000011920929,
					0.800000011920929,
					0.800000011920929,
					1
				],
				"metallicFactor":0,
				"roughnessFactor":0.5
			}
		},
		{
			"doubleSided":true,
			"name":"Material.028",
			"pbrMetallicRoughness":{
				"baseColorFactor":[
					0.800000011920929,
					0.800000011920929,
					0.800000011920929,
					1
				],
				"metallicFactor":0,
				"roughnessFactor":0.5
			}
		},
		{
			"doubleSided":true,
			"name":"Material.020",
			"pbrMetallicRoughness":{
				"baseColorFactor":[
					0.800000011920929,
					0.800000011920929,
					0.800000011920929,
					1
				],
				"metallicFactor":0,
				"roughnessFactor":0.5
			}
		},
		{
			"doubleSided":true,
			"name":"Material.032",
			"pbrMetallicRoughness":{
				"baseColorFactor":[
					0.800000011920929,
					0.800000011920929,
					0.800000011920929,
					1
				],
				"metallicFactor":0,
				"roughnessFactor":0.5
			}
		},
		{
			"doubleSided":true,
			"name":"Material.033",
			"pbrMetallicRoughness":{
				"baseColorFactor":[
					0.800000011920929,
					0.800000011920929,
					0.800000011920929,
					1
				],
				"metallicFactor":0,
				"roughnessFactor":0.5
			}
		},
		{
			"doubleSided":true,
			"name":"Material.034",
			"pbrMetallicRoughness":{
				"baseColorFactor":[
					0.800000011920929,
					0.800000011920929,
					0.800000011920929,
					1
				],
				"metallicFactor":0,
				"roughnessFactor":0.5
			}
		},
		{
			"doubleSided":true,
			"name":"Material.035",
			"pbrMetallicRoughness":{
				"baseColorFactor":[
					0.800000011920929,
					0.800000011920929,
					0.800000011920929,
					1
				],
				"metallicFactor":0,
				"roughnessFactor":0.5
			}
		},
		{
			"doubleSided":true,
			"name":"Material.036",
			"pbrMetallicRoughness":{
				"baseColorFactor":[
					0.800000011920929,
					0.800000011920929,
					0.800000011920929,
					1
				],
				"metallicFactor":0,
				"roughnessFactor":0.5
			}
		}
	],
	"meshes":[
		{
			"name":"Cube.012",
			"primitives":[
				{
					"attributes":{
						"POSITION":0,
						"NORMAL":1,
						"TEXCOORD_0":2
					},
					"indices":3,
					"material":0
				},
				{
					"attributes":{
						"POSITION":4,
						"NORMAL":5,
						"TEXCOORD_0":6
					},
					"indices":7,
					"material":1
				}
			]
		},
		{
			"name":"Cube",
			"primitives":[
				{
					"attributes":{
						"POSITION":8,
						"NORMAL":9,
						"TEXCOORD_0":10
					},
					"indices":11,
					"material":2
				}
			]
		},
		{
			"name":"Cube.001",
			"primitives":[
				{
					"attributes":{
						"POSITION":12,
						"NORMAL":13,
						"TEXCOORD_0":14
					},
					"indices":3,
					"material":3
				},
				{
					"attributes":{
						"POSITION":15,
						"NORMAL":16,
						"TEXCOORD_0":17
					},
					"indices":7,
					"material":4
				}
			]
		},
		{
			"name":"Cube.003",
			"primitives":[
				{
					"attributes":{
						"POSITION":18,
						"NORMAL":19,
						"TEXCOORD_0":20
					},
					"indices":11,
					"material":5
				}
			]
		},
		{
			"name":"Cube.004",
			"primitives":[
				{
					"attributes":{
						"POSITION":21,
						"NORMAL":22,
						"TEXCOORD_0":23
					},
					"indices":24,
					"material":6
				}
			]
		},
		{
			"name":"Cube.005",
			"primitives":[
				{
					"attributes":{
						"POSITION":25,
						"NORMAL":26,
						"TEXCOORD_0":27
					},
					"indices":11,
					"material":7
				}
			]
		},
		{
			"name":"Cube.006",
			"primitives":[
				{
					"attributes":{
						"POSITION":28,
						"NORMAL":29,
						"TEXCOORD_0":30
					},
					"indices":31,
					"material":8
				}
			]
		},
		{
			"name":"Cube.007",
			"primitives":[
				{
					"attributes":{
						"POSITION":32,
						"NORMAL":33,
						"TEXCOORD_0":34
					},
					"indices":11,
					"material":9
				}
			]
		},
		{
			"name":"Cube.008",
			"primitives":[
				{
					"attributes":{
						"POSITION":35,
						"NORMAL":36,
						"TEXCOORD_0":37
					},
					"indices":11,
					"material":10
				}
			]
		},
		{
			"name":"Cube.009",
			"primitives":[
				{
					"attributes":{
						"POSITION":38,
						"NORMAL":39,
						"TEXCOORD_0":40
					},
					"indices":11,
					"material":11
				}
			]
		},
		{
			"name":"Cube.010",
			"primitives":[
				{
					"attributes":{
						"POSITION":41,
						"NORMAL":42,
						"TEXCOORD_0":43
					},
					"indices":11,
					"material":12
				}
			]
		},
		{
			"name":"Cube.011",
			"primitives":[
				{
					"attributes":{
						"POSITION":44,
						"NORMAL":45,
						"TEXCOORD_0":46
					},
					"indices":11,
					"material":13
				}
			]
		},
		{
			"name":"Cube.021",
			"primitives":[
				{
					"attributes":{
						"POSITION":47,
						"NORMAL":48,
						"TEXCOORD_0":49
					},
					"indices":24,
					"material":14
				}
			]
		},
		{
			"name":"Cube.023",
			"primitives":[
				{
					"attributes":{
						"POSITION":50,
						"NORMAL":51,
						"TEXCOORD_0":52
					},
					"indices":11,
					"material":15
				}
			]
		},
		{
			"name":"Cube.024",
			"primitives":[
				{
					"attributes":{
						"POSITION":53,
						"NORMAL":54,
						"TEXCOORD_0":55
					},
					"indices":11,
					"material":16
				}
			]
		},
		{
			"name":"Cube.025",
			"primitives":[
				{
					"attributes":{
						"POSITION":56,
						"NORMAL":57,
						"TEXCOORD_0":58
					},
					"indices":24,
					"material":17
				}
			]
		},
		{
			"name":"Cube.026",
			"primitives":[
				{
					"attributes":{
						"POSITION":59,
						"NORMAL":60,
						"TEXCOORD_0":61
					},
					"indices":11,
					"material":18
				}
			]
		},
		{
			"name":"Cube.027",
			"primitives":[
				{
					"attributes":{
						"POSITION":62,
						"NORMAL":63,
						"TEXCOORD_0":64
					},
					"indices":11,
					"material":19
				}
			]
		},
		{
			"name":"Cube.028",
			"primitives":[
				{
					"attributes":{
						"POSITION":65,
						"NORMAL":66,
						"TEXCOORD_0":67
					},
					"indices":11,
					"material":20
				}
			]
		},
		{
			"name":"Cube.029",
			"primitives":[
				{
					"attributes":{
						"POSITION":68,
						"NORMAL":69,
						"TEXCOORD_0":70
					},
					"indices":71
				}
			]
		},
		{
			"name":"Cube.016",
			"primitives":[
				{
					"attributes":{
						"POSITION":72,
						"NORMAL":73,
						"TEXCOORD_0":74
					},
					"indices":75,
					"material":21
				}
			]
		},
		{
			"name":"Cube.017",
			"primitives":[
				{
					"attributes":{
						"POSITION":76,
						"NORMAL":77,
						"TEXCOORD_0":78
					},
					"indices":11,
					"material":22
				}
			]
		},
		{
			"name":"Cube.019",
			"primitives":[
				{
					"attributes":{
						"POSITION":79,
						"NORMAL":80,
						"TEXCOORD_0":81
					},
					"indices":11,
					"material":23
				}
			]
		},
		{
			"name":"Cube.020",
			"primitives":[
				{
					"attributes":{
						"POSITION":82,
						"NORMAL":83,
						"TEXCOORD_0":84
					},
					"indices":11,
					"material":24
				}
			]
		},
		{
			"name":"Cube.030",
			"primitives":[
				{
					"attributes":{
						"POSITION":85,
						"NORMAL":86,
						"TEXCOORD_0":87
					},
					"indices":11,
					"material":25
				}
			]
		},
		{
			"name":"Cube.031",
			"primitives":[
				{
					"attributes":{
						"POSITION":88,
						"NORMAL":89,
						"TEXCOORD_0":90
					},
					"indices":11,
					"material":26
				}
			]
		}
	],
	"textures":[
		{
			"sampler":0,
			"source":0
		},
		{
			"sampler":0,
			"source":1
		},
		{
			"sampler":0,
			"source":2
		},
		{
			"sampler":0,
			"source":3
		}
	],
	"images":[
		{
			"mimeType":"image/jpeg",
			"name":"brickwall_normal",
			"uri":"brickwall_normal.jpg"
		},
		{
			"mimeType":"image/jpeg",
			"name":"brickwall",
			"uri":"brickwall.jpg"
		},
		{
			"mimeType":"image/jpeg",
			"name":"bricks2_normal",
			"uri":"bricks2_normal.jpg"
		},
		{
			"mimeType":"image/jpeg",
			"name":"bricks2",
			"uri":"bricks2.jpg"
		}
	],
	"accessors":[
		{
			"bufferView":0,
			"componentType":5126,
			"count":264,
			"max":[
				-0.29456445574760437,
				8.77979850769043,
				1.9985978603363037
			],
			"min":[
				-1,
				-1,
				-2.0063767433166504
			],
			"type":"VEC3"
		},
		{
			"bufferView":1,
			"componentType":5126,
			"count":264,
			"type":"VEC3"
		},
		{
			"bufferView":2,
			"componentType":5126,
			"count":264,
			"type":"VEC2"
		},
		{
			"bufferView":3,
			"componentType":5123,
			"count":522,
			"type":"SCALAR"
		},
		{
			"bufferView":4,
			"componentType":5126,
			"count":4,
			"max":[
				-0.5106637477874756,
				8.541739463806152,
				1.9985978603363037
			],
			"min":[
				-0.5106637477874756,
				4.540388107299805,
				-2.0063767433166504
			],
			"type":"VEC3"
		},
		{
			"bufferView":5,
			"componentType":5126,
			"count":4,
			"type":"VEC3"
		},
		{
			"bufferView":6,
			"componentType":5126,
			"count":4,
			"type":"VEC2"
		},
		{
			"bufferView":7,
			"componentType":5123,
			"count":6,
			"type":"SCALAR"
		},
		{
			"bufferView":8,
			"componentType":5126,
			"count":268,
			"max":[
				-0.29456445574760437,
				8.77979850769043,
				1.9985978603363037
			],
			"min":[
				-1,
				-1,
				-2.0063767433166504
			],
			"type":"VEC3"
		},
		{
			"bufferView":9,
			"componentType":5126,
			"count":268,
			"type":"VEC3"
		},
		{
			"bufferView":10,
			"componentType":5126,
			"count":268,
			"type":"VEC2"
		},
		{
			"bufferView":11,
			"componentType":5123,
			"count":528,
			"type":"SCALAR"
		},
		{
			"bufferView":12,
			"componentType":5126,
			"count":264,
			"max":[
				-0.29456445574760437,
				8.77979850769043,
				1.9985978603363037
			],
			"min":[
				-1,
				-1,
				-2.0063767433166504
			],
			"type":"VEC3"
		},
		{
			"bufferView":13,
			"componentType":5126,
			"count":264,
			"type":"VEC3"
		},
		{
			"bufferView":14,
			"componentType":5126,
			"count":264,
			"type":"VEC2"
		},
		{
			"bufferView":15,
			"componentType":5126,
			"count":4,
			"max":[
				-0.5106637477874756,
				8.541739463806152,
				1.9985978603363037
			],
			"min":[
				-0.5106637477874756,
				4.540388107299805,
				-2.0063767433166504
			],
			"type":"VEC3"
		},
		{
			"bufferView":16,
			"componentType":5126,
			"count":4,
			"type":"VEC3"
		},
		{
			"bufferView":17,
			"componentType":5126,
			"count":4,
			"type":"VEC2"
		},
		{
			"bufferView":18,
			"componentType":5126,
			"count":268,
			"max":[
				-0.29456445574760437,
				8.77979850769043,
				1.9985978603363037
			],
			"min":[
				-1,
				-1,
				-2.0063767433166504
			],
			"type":"VEC3"
		},
		{
			"bufferView":19,
			"componentType":5126,
			"count":268,
			"type":"VEC3"
		},
		{
			"bufferView":20,
			"componentType":5126,
			"count":268,
			"type":"VEC2"
		},
		{
			"bufferView":21,
			"componentType":5126,
			"count":312,
			"max":[
				-0.29456445574760437,
				8.77979850769043,
				2.7140321731567383
			],
			"min":[
				-1,
				-1,
				-2.0063767433166504
			],
			"type":"VEC3"
		},
		{
			"bufferView":22,
			"componentType":5126,
			"count":312,
			"type":"VEC3"
		},
		{
			"bufferView":23,
			"componentType":5126,
			"count":312,
			"type":"VEC2"
		},
		{
			"bufferView":24,
			"componentType":5123,
			"count":624,
			"type":"SCALAR"
		},
		{
			"bufferView":25,
			"componentType":5126,
			"count":268,
			"max":[
				-0.29456445574760437,
				8.77979850769043,
				1.9985978603363037
			],
			"min":[
				-1,
				-1,
				-2.0063767433166504
			],
			"type":"VEC3"
		},
		{
			"bufferView":26,
			"componentType":5126,
			"count":268,
			"type":"VEC3"
		},
		{
			"bufferView":27,
			"componentType":5126,
			"count":268,
			"type":"VEC2"
		},
		{
			"bufferView":28,
			"componentType":5126,
			"count":351,
			"max":[
				-0.29456445574760437,
				8.77979850769043,
				2.7140321731567383
			],
			"min":[
				-1,
				-1,
				-2.0063767433166504
			],
			"type":"VEC3"
		},
		{
			"bufferView":29,
			"componentType":5126,
			"count":351,
			"type":"VEC3"
		},
		{
			"bufferView":30,
			"componentType":5126,
			"count":351,
			"type":"VEC2"
		},
		{
			"bufferView":31,
			"componentType":5123,
			"count":702,
			"type":"SCALAR"
		},
		{
			"bufferView":32,
			"componentType":5126,
			"count":268,
			"max":[
				-0.29456445574760437,
				8.77979850769043,
				1.9985978603363037
			],
			"min":[
				-1,
				-1,
				-2.0063767433166504
			],
			"type":"VEC3"
		},
		{
			"bufferView":33,
			"componentType":5126,
			"count":268,
			"type":"VEC3"
		},
		{
			"bufferView":34,
			"componentType":5126,
			"count":268,
			"type":"VEC2"
		},
		{
			"bufferView":35,
			"componentType":5126,
			"count":268,
			"max":[
				-0.29456445574760437,
				8.77979850769043,
				1.9985978603363037
			],
			"min":[
				-1,
				-1,
				-2.0063767433166504
			],
			"type":"VEC3"
		},
		{
			"bufferView":36,
			"componentType":5126,
			"count":268,
			"type":"VEC3"
		},
		{
			"bufferView":37,
			"componentType":5126,
			"count":268,
			"type":"VEC2"
		},
		{
			"bufferView":38,
			"componentType":5126,
			"count":268,
			"max":[
				-0.29456445574760437,
				8.77979850769043,
				1.9985978603363037
			],
			"min":[
				-1,
				-1,
				-2.0063767433166504
			],
			"type":"VEC3"
		},
		{
			"bufferView":39,
			"componentType":5126,
			"count":268,
			"type":"VEC3"
		},
		{
			"bufferView":40,
			"componentType":5126,
			"count":268,
			"type":"VEC2"
		},
		{
			"bufferView":41,
			"componentType":5126,
			"count":268,
			"max":[
				-0.29456445574760437,
				8.77979850769043,
				1.9985978603363037
			],
			"min":[
				-1,
				-1,
				-2.0063767433166504
			],
			"type":"VEC3"
		},
		{
			"bufferView":42,
			"componentType":5126,
			"count":268,
			"type":"VEC3"
		},
		{
			"bufferView":43,
			"componentType":5126,
			"count":268,
			"type":"VEC2"
		},
		{
			"bufferView":44,
			"componentType":5126,
			"count":268,
			"max":[
				-0.29456445574760437,
				8.77979850769043,
				1.9985978603363037
			],
			"min":[
				-1,
				-1,
				-2.0063767433166504
			],
			"type":"VEC3"
		},
		{
			"bufferView":45,
			"componentType":5126,
			"count":268,
			"type":"VEC3"
		},
		{
			"bufferView":46,
			"componentType":5126,
			"count":268,
			"type":"VEC2"
		},
		{
			"bufferView":47,
			"componentType":5126,
			"count":312,
			"max":[
				-0.29456445574760437,
				8.77979850769043,
				2.7140321731567383
			],
			"min":[
				-1,
				-1,
				-2.0063767433166504
			],
			"type":"VEC3"
		},
		{
			"bufferView":48,
			"componentType":5126,
			"count":312,
			"type":"VEC3"
		},
		{
			"bufferView":49,
			"componentType":5126,
			"count":312,
			"type":"VEC2"
		},
		{
			"bufferView":50,
			"componentType":5126,
			"count":268,
			"max":[
				-0.29456445574760437,
				8.77979850769043,
				1.9985978603363037
			],
			"min":[
				-1,
				-1,
				-2.0063767433166504
			],
			"type":"VEC3"
		},
		{
			"bufferView":51,
			"componentType":5126,
			"count":268,
			"type":"VEC3"
		},
		{
			"bufferView":52,
			"componentType":5126,
			"count":268,
			"type":"VEC2"
		},
		{
			"bufferView":53,
			"componentType":5126,
			"count":268,
			"max":[
				-0.29456445574760437,
				8.77979850769043,
				1.9985978603363037
			],
			"min":[
				-1,
				-1,
				-2.0063767433166504
			],
			"type":"VEC3"
		},
		{
			"bufferView":54,
			"componentType":5126,
			"count":268,
			"type":"VEC3"
		},
		{
			"bufferView":55,
			"componentType":5126,
			"count":268,
			"type":"VEC2"
		},
		{
			"bufferView":56,
			"componentType":5126,
			"count":312,
			"max":[
				-0.29456445574760437,
				8.77979850769043,
				2.7140321731567383
			],
			"min":[
				-1,
				-1,
				-2.0063767433166504
			],
			"type":"VEC3"
		},
		{
			"bufferView":57,
			"componentType":5126,
			"count":312,
			"type":"VEC3"
		},
		{
			"bufferView":58,
			"componentType":5126,
			"count":312,
			"type":"VEC2"
		},
		{
			"bufferView":59,
			"componentType":5126,
			"count":268,
			"max":[
				-0.29456445574760437,
				8.77979850769043,
				1.9985978603363037
			],
			"min":[
				-1,
				-1,
				-2.0063767433166504
			],
			"type":"VEC3"
		},
		{
			"bufferView":60,
			"componentType":5126,
			"count":268,
			"type":"VEC3"
		},
		{
			"bufferView":61,
			"componentType":5126,
			"count":268,
			"type":"VEC2"
		},
		{
			"bufferView":62,
			"componentType":5126,
			"count":268,
			"max":[
				-0.29456445574760437,
				8.77979850769043,
				1.9985978603363037
			],
			"min":[
				-1,
				-1,
				-2.0063767433166504
			],
			"type":"VEC3"
		},
		{
			"bufferView":63,
			"componentType":5126,
			"count":268,
			"type":"VEC3"
		},
		{
			"bufferView":64,
			"componentType":5126,
			"count":268,
			"type":"VEC2"
		},
		{
			"bufferView":65,
			"componentType":5126,
			"count":268,
			"max":[
				-0.29456445574760437,
				8.77979850769043,
				1.9985978603363037
			],
			"min":[
				-1,
				-1,
				-2.0063767433166504
			],
			"type":"VEC3"
		},
		{
			"bufferView":66,
			"componentType":5126,
			"count":268,
			"type":"VEC3"
		},
		{
			"bufferView":67,
			"componentType":5126,
			"count":268,
			"type":"VEC2"
		},
		{
			"bufferView":68,
			"componentType":5126,
			"count":24,
			"max":[
				13.682849884033203,
				1,
				6.616089820861816
			],
			"min":[
				-11.74696159362793,
				0.4884606897830963,
				-18.85553741455078
			],
			"type":"VEC3"
		},
		{
			"bufferView":69,
			"componentType":5126,
			"count":24,
			"type":"VEC3"
		},
		{
			"bufferView":70,
			"componentType":5126,
			"count":24,
			"type":"VEC2"
		},
		{
			"bufferView":71,
			"componentType":5123,
			"count":36,
			"type":"SCALAR"
		},
		{
			"bufferView":72,
			"componentType":5126,
			"count":348,
			"max":[
				-0.07734405994415283,
				8.77979850769043,
				2.7140321731567383
			],
			"min":[
				-1,
				-1,
				-2.0063767433166504
			],
			"type":"VEC3"
		},
		{
			"bufferView":73,
			"componentType":5126,
			"count":348,
			"type":"VEC3"
		},
		{
			"bufferView":74,
			"componentType":5126,
			"count":348,
			"type":"VEC2"
		},
		{
			"bufferView":75,
			"componentType":5123,
			"count":720,
			"type":"SCALAR"
		},
		{
			"bufferView":76,
			"componentType":5126,
			"count":268,
			"max":[
				-0.29456445574760437,
				8.77979850769043,
				1.9985978603363037
			],
			"min":[
				-1,
				-1,
				-2.0063767433166504
			],
			"type":"VEC3"
		},
		{
			"bufferView":77,
			"componentType":5126,
			"count":268,
			"type":"VEC3"
		},
		{
			"bufferView":78,
			"componentType":5126,
			"count":268,
			"type":"VEC2"
		},
		{
			"bufferView":79,
			"componentType":5126,
			"count":268,
			"max":[
				-0.29456445574760437,
				8.77979850769043,
				1.9985978603363037
			],
			"min":[
				-1,
				-1,
				-2.0063767433166504
			],
			"type":"VEC3"
		},
		{
			"bufferView":80,
			"componentType":5126,
			"count":268,
			"type":"VEC3"
		},
		{
			"bufferView":81,
			"componentType":5126,
			"count":268,
			"type":"VEC2"
		},
		{
			"bufferView":82,
			"componentType":5126,
			"count":268,
			"max":[
				-0.29456445574760437,
				8.77979850769043,
				1.9985978603363037
			],
			"min":[
				-1,
				-1,
				-2.0063767433166504
			],
			"type":"VEC3"
		},
		{
			"bufferView":83,
			"componentType":5126,
			"count":268,
			"type":"VEC3"
		},
		{
			"bufferView":84,
			"componentType":5126,
			"count":268,
			"type":"VEC2"
		},
		{
			"bufferView":85,
			"componentType":5126,
			"count":268,
			"max":[
				-0.29456445574760437,
				8.77979850769043,
				1.9985978603363037
			],
			"min":[
				-1,
				-1,
				-2.0063767433166504
			],
			"type":"VEC3"
		},
		{
			"bufferView":86,
			"componentType":5126,
			"count":268,
			"type":"VEC3"
		},
		{
			"bufferView":87,
			"componentType":5126,
			"count":268,
			"type":"VEC2"
		},
		{
			"bufferView":88,
			"componentType":5126,
			"count":268,
			"max":[
				-0.29456445574760437,
				8.77979850769043,
				1.9985978603363037
			],
			"min":[
				-1,
				-1,
				-2.0063767433166504
			],
			"type":"VEC3"
		},
		{
			"bufferView":89,
			"componentType":5126,
			"count":268,
			"type":"VEC3"
		},
		{
			"bufferView":90,
			"componentType":5126,
			"count":268,
			"type":"VEC2"
		}
	],
	"bufferViews":[
		{
			"buffer":0,
			"byteLength":3168,
			"byteOffset":0,
			"target":34962
		},
		{
			"buffer":0,
			"byteLength":3168,
			"byteOffset":3168,
			"target":34962
		},
		{
			"buffer":0,
			"byteLength":2112,
			"byteOffset":6336,
			"target":34962
		},
		{
			"buffer":0,
			"byteLength":1044,
			"byteOffset":8448,
			"target":34963
		},
		{
			"buffer":0,
			"byteLength":48,
			"byteOffset":9492,
			"target":34962
		},
		{
			"buffer":0,
			"byteLength":48,
			"byteOffset":9540,
			"target":34962
		},
		{
			"buffer":0,
			"byteLength":32,
			"byteOffset":9588,
			"target":34962
		},
		{
			"buffer":0,
			"byteLength":12,
			"byteOffset":9620,
			"target":34963
		},
		{
			"buffer":0,
			"byteLength":3216,
			"byteOffset":9632,
			"target":34962
		},
		{
			"buffer":0,
			"byteLength":3216,
			"byteOffset":12848,
			"target":34962
		},
		{
			"buffer":0,
			"byteLength":2144,
			"byteOffset":16064,
			"target":34962
		},
		{
			"buffer":0,
			"byteLength":1056,
			"byteOffset":18208,
			"target":34963
		},
		{
			"buffer":0,
			"byteLength":3168,
			"byteOffset":19264,
			"target":34962
		},
		{
			"buffer":0,
			"byteLength":3168,
			"byteOffset":22432,
			"target":34962
		},
		{
			"buffer":0,
			"byteLength":2112,
			"byteOffset":25600,
			"target":34962
		},
		{
			"buffer":0,
			"byteLength":48,
			"byteOffset":27712,
			"target":34962
		},
		{
			"buffer":0,
			"byteLength":48,
			"byteOffset":27760,
			"target":34962
		},
		{
			"buffer":0,
			"byteLength":32,
			"byteOffset":27808,
			"target":34962
		},
		{
			"buffer":0,
			"byteLength":3216,
			"byteOffset":27840,
			"target":34962
		},
		{
			"buffer":0,
			"byteLength":3216,
			"byteOffset":31056,
			"target":34962
		},
		{
			"buffer":0,
			"byteLength":2144,
			"byteOffset":34272,
			"target":34962
		},
		{
			"buffer":0,
			"byteLength":3744,
			"byteOffset":36416,
			"target":34962
		},
		{
			"buffer":0,
			"byteLength":3744,
			"byteOffset":40160,
			"target":34962
		},
		{
			"buffer":0,
			"byteLength":2496,
			"byteOffset":43904,
			"target":34962
		},
		{
			"buffer":0,
			"byteLength":1248,
			"byteOffset":46400,
			"target":34963
		},
		{
			"buffer":0,
			"byteLength":3216,
			"byteOffset":47648,
			"target":34962
		},
		{
			"buffer":0,
			"byteLength":3216,
			"byteOffset":50864,
			"target":34962
		},
		{
			"buffer":0,
			"byteLength":2144,
			"byteOffset":54080,
			"target":34962
		},
		{
			"buffer":0,
			"byteLength":4212,
			"byteOffset":56224,
			"target":34962
		},
		{
			"buffer":0,
			"byteLength":4212,
			"byteOffset":60436,
			"target":34962
		},
		{
			"buffer":0,
			"byteLength":2808,
			"byteOffset":64648,
			"target":34962
		},
		{
			"buffer":0,
			"byteLength":1404,
			"byteOffset":67456,
			"target":34963
		},
		{
			"buffer":0,
			"byteLength":3216,
			"byteOffset":68860,
			"target":34962
		},
		{
			"buffer":0,
			"byteLength":3216,
			"byteOffset":72076,
			"target":34962
		},
		{
			"buffer":0,
			"byteLength":2144,
			"byteOffset":75292,
			"target":34962
		},
		{
			"buffer":0,
			"byteLength":3216,
			"byteOffset":77436,
			"target":34962
		},
		{
			"buffer":0,
			"byteLength":3216,
			"byteOffset":80652,
			"target":34962
		},
		{
			"buffer":0,
			"byteLength":2144,
			"byteOffset":83868,
			"target":34962
		},
		{
			"buffer":0,
			"byteLength":3216,
			"byteOffset":86012,
			"target":34962
		},
		{
			"buffer":0,
			"byteLength":3216,
			"byteOffset":89228,
			"target":34962
		},
		{
			"buffer":0,
			"byteLength":2144,
			"byteOffset":92444,
			"target":34962
		},
		{
			"buffer":0,
			"byteLength":3216,
			"byteOffset":94588,
			"target":34962
		},
		{
			"buffer":0,
			"byteLength":3216,
			"byteOffset":97804,
			"target":34962
		},
		{
			"buffer":0,
			"byteLength":2144,
			"byteOffset":101020,
			"target":34962
		},
		{
			"buffer":0,
			"byteLength":3216,
			"byteOffset":103164,
			"target":34962
		},
		{
			"buffer":0,
			"byteLength":3216,
			"byteOffset":106380,
			"target":34962
		},
		{
			"buffer":0,
			"byteLength":2144,
			"byteOffset":109596,
			"target":34962
		},
		{
			"buffer":0,
			"byteLength":3744,
			"byteOffset":111740,
			"target":34962
		},
		{
			"buffer":0,
			"byteLength":3744,
			"byteOffset":115484,
			"target":34962
		},
		{
			"buffer":0,
			"byteLength":2496,
			"byteOffset":119228,
			"target":34962
		},
		{
			"buffer":0,
			"byteLength":3216,
			"byteOffset":121724,
			"target":34962
		},
		{
			"buffer":0,
			"byteLength":3216,
			"byteOffset":124940,
			"target":34962
		},
		{
			"buffer":0,
			"byteLength":2144,
			"byteOffset":128156,
			"target":34962
		},
		{
			"buffer":0,
			"byteLength":3216,
			"byteOffset":130300,
			"target":34962
		},
		{
			"buffer":0,
			"byteLength":3216,
			"byteOffset":133516,
			"target":34962
		},
		{
			"buffer":0,
			"byteLength":2144,
			"byteOffset":136732,
			"target":34962
		},
		{
			"buffer":0,
			"byteLength":3744,
			"byteOffset":138876,
			"target":34962
		},
		{
			"buffer":0,
			"byteLength":3744,
			"byteOffset":142620,
			"target":34962
		},
		{
			"buffer":0,
			"byteLength":2496,
			"byteOffset":146364,
			"target":34962
		},
		{
			"buffer":0,
			"byteLength":3216,
			"byteOffset":148860,
			"target":34962
		},
		{
			"buffer":0,
			"byteLength":3216,
			"byteOffset":152076,
			"target":34962
		},
		{
			"buffer":0,
			"byteLength":2144,
			"byteOffset":155292,
			"target":34962
		},
		{
			"buffer":0,
			"byteLength":3216,
			"byteOffset":157436,
			"target":34962
		},
		{
			"buffer":0,
			"byteLength":3216,
			"byteOffset":160652,
			"target":34962
		},
		{
			"buffer":0,
			"byteLength":2144,
			"byteOffset":163868,
			"target":34962
		},
		{
			"buffer":0,
			"byteLength":3216,
			"byteOffset":166012,
			"target":34962
		},
		{
			"buffer":0,
			"byteLength":3216,
			"byteOffset":169228,
			"target":34962
		},
		{
			"buffer":0,
			"byteLength":2144,
			"byteOffset":172444,
			"target":34962
		},
		{
			"buffer":0,
			"byteLength":288,
			"byteOffset":174588,
			"target":34962
		},
		{
			"buffer":0,
			"byteLength":288,
			"byteOffset":174876,
			"target":34962
		},
		{
			"buffer":0,
			"byteLength":192,
			"byteOffset":175164,
			"target":34962
		},
		{
			"buffer":0,
			"byteLength":72,
			"byteOffset":175356,
			"target":34963
		},
		{
			"buffer":0,
			"byteLength":4176,
			"byteOffset":175428,
			"target":34962
		},
		{
			"buffer":0,
			"byteLength":4176,
			"byteOffset":179604,
			"target":34962
		},
		{
			"buffer":0,
			"byteLength":2784,
			"byteOffset":183780,
			"target":34962
		},
		{
			"buffer":0,
			"byteLength":1440,
			"byteOffset":186564,
			"target":34963
		},
		{
			"buffer":0,
			"byteLength":3216,
			"byteOffset":188004,
			"target":34962
		},
		{
			"buffer":0,
			"byteLength":3216,
			"byteOffset":191220,
			"target":34962
		},
		{
			"buffer":0,
			"byteLength":2144,
			"byteOffset":194436,
			"target":34962
		},
		{
			"buffer":0,
			"byteLength":3216,
			"byteOffset":196580,
			"target":34962
		},
		{
			"buffer":0,
			"byteLength":3216,
			"byteOffset":199796,
			"target":34962
		},
		{
			"buffer":0,
			"byteLength":2144,
			"byteOffset":203012,
			"target":34962
		},
		{
			"buffer":0,
			"byteLength":3216,
			"byteOffset":205156,
			"target":34962
		},
		{
			"buffer":0,
			"byteLength":3216,
			"byteOffset":208372,
			"target":34962
		},
		{
			"buffer":0,
			"byteLength":2144,
			"byteOffset":211588,
			"target":34962
		},
		{
			"buffer":0,
			"byteLength":3216,
			"byteOffset":213732,
			"target":34962
		},
		{
			"buffer":0,
			"byteLength":3216,
			"byteOffset":216948,
			"target":34962
		},
		{
			"buffer":0,
			"byteLength":2144,
			"byteOffset":220164,
			"target":34962
		},
		{
			"buffer":0,
			"byteLength":3216,
			"byteOffset":222308,
			"target":34962
		},
		{
			"buffer":0,
			"byteLength":3216,
			"byteOffset":225524,
			"target":34962
		},
		{
			"buffer":0,
			"byteLength":2144,
			"byteOffset":228740,
			"target":34962
		}
	],
	"samplers":[
		{
			"magFilter":9729,
			"minFilter":9987
		}
	],
	"buffers":[
		{
			"byteLength":230884,
			"uri":"wall2.bin"
		}
	]
}
