{
	"asset":{
		"generator":"Khronos glTF Blender I/O v4.4.56",
		"version":"2.0"
	},
	"scene":0,
	"scenes":[
		{
			"name":"Scene",
			"nodes":[
				0,
				1,
				2,
				3,
				4,
				5,
				6,
				7,
				8,
				9,
				10,
				11,
				12,
				13,
				14,
				15,
				16,
				17,
				18,
				19,
				20,
				21,
				22,
				23,
				24
			]
		}
	],
	"nodes":[
		{
			"mesh":0,
			"name":"Cube.005"
		},
		{
			"mesh":1,
			"name":"lospollos"
		},
		{
			"mesh":2,
			"name":"doncardio"
		},
		{
			"mesh":3,
			"name":"hermanos"
		},
		{
			"mesh":4,
			"name":"Cube"
		},
		{
			"mesh":5,
			"name":"Cube.003"
		},
		{
			"mesh":6,
			"name":"Cube.004"
		},
		{
			"mesh":7,
			"name":"Cube.008"
		},
		{
			"mesh":8,
			"name":"Cube.009"
		},
		{
			"mesh":9,
			"name":"Cube.010"
		},
		{
			"mesh":10,
			"name":"Cube.011"
		},
		{
			"mesh":11,
			"name":"Cube.016"
		},
		{
			"mesh":12,
			"name":"Cube.021"
		},
		{
			"mesh":13,
			"name":"Cube.022"
		},
		{
			"mesh":14,
			"name":"Cube.023"
		},
		{
			"mesh":15,
			"name":"Cube.024"
		},
		{
			"mesh":16,
			"name":"Cube.025"
		},
		{
			"mesh":17,
			"name":"Cube.026"
		},
		{
			"mesh":18,
			"name":"Cube.012"
		},
		{
			"mesh":19,
			"name":"Cube.013"
		},
		{
			"mesh":20,
			"name":"Cube.014"
		},
		{
			"mesh":21,
			"name":"Cube.015"
		},
		{
			"mesh":22,
			"name":"Cube.017"
		},
		{
			"mesh":23,
			"name":"Cube.018"
		},
		{
			"mesh":24,
			"name":"Cube.019"
		}
	],
	"materials":[
		{
			"doubleSided":true,
			"name":"White.011",
			"pbrMetallicRoughness":{
				"baseColorFactor":[
					0.800000011920929,
					0.800000011920929,
					0.800000011920929,
					1
				],
				"metallicFactor":0,
				"roughnessFactor":0.5
			}
		},
		{
			"doubleSided":true,
			"name":"wood_table_001.011",
			"normalTexture":{
				"index":0
			},
			"pbrMetallicRoughness":{
				"baseColorTexture":{
					"index":1
				},
				"metallicFactor":0,
				"metallicRoughnessTexture":{
					"index":2
				}
			}
		},
		{
			"doubleSided":true,
			"name":"paper_0033.011",
			"normalTexture":{
				"index":3
			},
			"pbrMetallicRoughness":{
				"baseColorTexture":{
					"index":4
				},
				"metallicFactor":0,
				"metallicRoughnessTexture":{
					"index":5
				}
			}
		},
		{
			"doubleSided":true,
			"name":"White.013",
			"pbrMetallicRoughness":{
				"baseColorFactor":[
					0.800000011920929,
					0.800000011920929,
					0.800000011920929,
					1
				],
				"metallicFactor":0,
				"roughnessFactor":0.5
			}
		},
		{
			"doubleSided":true,
			"name":"wood_table_001.013",
			"normalTexture":{
				"index":6
			},
			"pbrMetallicRoughness":{
				"baseColorTexture":{
					"index":7
				},
				"metallicFactor":0,
				"metallicRoughnessTexture":{
					"index":8
				}
			}
		},
		{
			"doubleSided":true,
			"name":"paper_0033.013",
			"normalTexture":{
				"index":9
			},
			"pbrMetallicRoughness":{
				"baseColorTexture":{
					"index":10
				},
				"metallicFactor":0,
				"metallicRoughnessTexture":{
					"index":11
				}
			}
		},
		{
			"doubleSided":true,
			"name":"White.014",
			"pbrMetallicRoughness":{
				"baseColorFactor":[
					0.800000011920929,
					0.800000011920929,
					0.800000011920929,
					1
				],
				"metallicFactor":0,
				"roughnessFactor":0.5
			}
		},
		{
			"doubleSided":true,
			"name":"wood_table_001.014",
			"normalTexture":{
				"index":12
			},
			"pbrMetallicRoughness":{
				"baseColorTexture":{
					"index":13
				},
				"metallicFactor":0,
				"metallicRoughnessTexture":{
					"index":14
				}
			}
		},
		{
			"doubleSided":true,
			"name":"paper_0033.014",
			"normalTexture":{
				"index":15
			},
			"pbrMetallicRoughness":{
				"baseColorTexture":{
					"index":16
				},
				"metallicFactor":0,
				"metallicRoughnessTexture":{
					"index":17
				}
			}
		}
	],
	"meshes":[
		{
			"name":"Cube.013",
			"primitives":[
				{
					"attributes":{
						"POSITION":0,
						"NORMAL":1,
						"TEXCOORD_0":2
					},
					"indices":3
				}
			]
		},
		{
			"name":"Cube.041",
			"primitives":[
				{
					"attributes":{
						"POSITION":4,
						"NORMAL":5,
						"TEXCOORD_0":6
					},
					"indices":7,
					"material":0
				},
				{
					"attributes":{
						"POSITION":8,
						"NORMAL":9,
						"TEXCOORD_0":10
					},
					"indices":11,
					"material":1
				},
				{
					"attributes":{
						"POSITION":12,
						"NORMAL":13,
						"TEXCOORD_0":14
					},
					"indices":15,
					"material":2
				}
			]
		},
		{
			"name":"Cube.043",
			"primitives":[
				{
					"attributes":{
						"POSITION":16,
						"NORMAL":17,
						"TEXCOORD_0":18
					},
					"indices":7,
					"material":3
				},
				{
					"attributes":{
						"POSITION":19,
						"NORMAL":20,
						"TEXCOORD_0":21
					},
					"indices":11,
					"material":4
				},
				{
					"attributes":{
						"POSITION":22,
						"NORMAL":23,
						"TEXCOORD_0":24
					},
					"indices":15,
					"material":5
				}
			]
		},
		{
			"name":"Cube.044",
			"primitives":[
				{
					"attributes":{
						"POSITION":25,
						"NORMAL":26,
						"TEXCOORD_0":27
					},
					"indices":7,
					"material":6
				},
				{
					"attributes":{
						"POSITION":28,
						"NORMAL":29,
						"TEXCOORD_0":30
					},
					"indices":11,
					"material":7
				},
				{
					"attributes":{
						"POSITION":31,
						"NORMAL":32,
						"TEXCOORD_0":33
					},
					"indices":15,
					"material":8
				}
			]
		},
		{
			"name":"Cube",
			"primitives":[
				{
					"attributes":{
						"POSITION":34,
						"NORMAL":35,
						"TEXCOORD_0":36
					},
					"indices":37
				}
			]
		},
		{
			"name":"Cube.003",
			"primitives":[
				{
					"attributes":{
						"POSITION":38,
						"NORMAL":39,
						"TEXCOORD_0":40
					},
					"indices":41
				}
			]
		},
		{
			"name":"Cube.004",
			"primitives":[
				{
					"attributes":{
						"POSITION":42,
						"NORMAL":43,
						"TEXCOORD_0":44
					},
					"indices":45
				}
			]
		},
		{
			"name":"Cube.008",
			"primitives":[
				{
					"attributes":{
						"POSITION":46,
						"NORMAL":47,
						"TEXCOORD_0":48
					},
					"indices":37
				}
			]
		},
		{
			"name":"Cube.009",
			"primitives":[
				{
					"attributes":{
						"POSITION":49,
						"NORMAL":50,
						"TEXCOORD_0":51
					},
					"indices":37
				}
			]
		},
		{
			"name":"Cube.010",
			"primitives":[
				{
					"attributes":{
						"POSITION":52,
						"NORMAL":53,
						"TEXCOORD_0":54
					},
					"indices":37
				}
			]
		},
		{
			"name":"Cube.011",
			"primitives":[
				{
					"attributes":{
						"POSITION":55,
						"NORMAL":56,
						"TEXCOORD_0":57
					},
					"indices":37
				}
			]
		},
		{
			"name":"Cube.021",
			"primitives":[
				{
					"attributes":{
						"POSITION":58,
						"NORMAL":59,
						"TEXCOORD_0":60
					},
					"indices":61
				}
			]
		},
		{
			"name":"Cube.023",
			"primitives":[
				{
					"attributes":{
						"POSITION":62,
						"NORMAL":63,
						"TEXCOORD_0":64
					},
					"indices":41
				}
			]
		},
		{
			"name":"Cube.024",
			"primitives":[
				{
					"attributes":{
						"POSITION":65,
						"NORMAL":66,
						"TEXCOORD_0":67
					},
					"indices":41
				}
			]
		},
		{
			"name":"Cube.025",
			"primitives":[
				{
					"attributes":{
						"POSITION":68,
						"NORMAL":69,
						"TEXCOORD_0":70
					},
					"indices":71
				}
			]
		},
		{
			"name":"Cube.026",
			"primitives":[
				{
					"attributes":{
						"POSITION":72,
						"NORMAL":73,
						"TEXCOORD_0":74
					},
					"indices":41
				}
			]
		},
		{
			"name":"Cube.027",
			"primitives":[
				{
					"attributes":{
						"POSITION":75,
						"NORMAL":76,
						"TEXCOORD_0":77
					},
					"indices":41
				}
			]
		},
		{
			"name":"Cube.028",
			"primitives":[
				{
					"attributes":{
						"POSITION":78,
						"NORMAL":79,
						"TEXCOORD_0":80
					},
					"indices":41
				}
			]
		},
		{
			"name":"Cube.029",
			"primitives":[
				{
					"attributes":{
						"POSITION":81,
						"NORMAL":82,
						"TEXCOORD_0":83
					},
					"indices":84
				}
			]
		},
		{
			"name":"Cube.016",
			"primitives":[
				{
					"attributes":{
						"POSITION":85,
						"NORMAL":86,
						"TEXCOORD_0":87
					},
					"indices":88
				}
			]
		},
		{
			"name":"Cube.017",
			"primitives":[
				{
					"attributes":{
						"POSITION":89,
						"NORMAL":90,
						"TEXCOORD_0":91
					},
					"indices":37
				}
			]
		},
		{
			"name":"Cube.019",
			"primitives":[
				{
					"attributes":{
						"POSITION":92,
						"NORMAL":93,
						"TEXCOORD_0":94
					},
					"indices":37
				}
			]
		},
		{
			"name":"Cube.020",
			"primitives":[
				{
					"attributes":{
						"POSITION":95,
						"NORMAL":96,
						"TEXCOORD_0":97
					},
					"indices":37
				}
			]
		},
		{
			"name":"Cube.030",
			"primitives":[
				{
					"attributes":{
						"POSITION":98,
						"NORMAL":99,
						"TEXCOORD_0":100
					},
					"indices":37
				}
			]
		},
		{
			"name":"Cube.031",
			"primitives":[
				{
					"attributes":{
						"POSITION":101,
						"NORMAL":102,
						"TEXCOORD_0":103
					},
					"indices":37
				}
			]
		}
	],
	"textures":[
		{
			"sampler":0,
			"source":0
		},
		{
			"sampler":0,
			"source":1
		},
		{
			"sampler":0,
			"source":2
		},
		{
			"sampler":0,
			"source":3
		},
		{
			"sampler":0,
			"source":4
		},
		{
			"sampler":0,
			"source":5
		},
		{
			"sampler":0,
			"source":0
		},
		{
			"sampler":0,
			"source":1
		},
		{
			"sampler":0,
			"source":2
		},
		{
			"sampler":0,
			"source":3
		},
		{
			"sampler":0,
			"source":4
		},
		{
			"sampler":0,
			"source":5
		},
		{
			"sampler":0,
			"source":0
		},
		{
			"sampler":0,
			"source":1
		},
		{
			"sampler":0,
			"source":2
		},
		{
			"sampler":0,
			"source":3
		},
		{
			"sampler":0,
			"source":4
		},
		{
			"sampler":0,
			"source":5
		}
	],
	"images":[
		{
			"mimeType":"image/png",
			"name":"wood_table_001_nor_gl_1k",
			"uri":"wood_table_001_nor_gl_1k.png"
		},
		{
			"mimeType":"image/png",
			"name":"wood_table_001_diff_1k",
			"uri":"wood_table_001_diff_1k.png"
		},
		{
			"mimeType":"image/png",
			"name":"wood_table_001_rough_1k",
			"uri":"wood_table_001_rough_1k.png"
		},
		{
			"mimeType":"image/png",
			"name":"paper_0033_normal_opengl_1k",
			"uri":"paper_0033_normal_opengl_1k.png"
		},
		{
			"mimeType":"image/jpeg",
			"name":"paper_0033_color_1k",
			"uri":"paper_0033_color_1k.jpg"
		},
		{
			"mimeType":"image/png",
			"name":"paper_0033_roughness_1k",
			"uri":"paper_0033_roughness_1k.png"
		}
	],
	"accessors":[
		{
			"bufferView":0,
			"componentType":5126,
			"count":268,
			"max":[
				-12.28392219543457,
				8.77979850769043,
				-3.7703139781951904
			],
			"min":[
				-12.989357948303223,
				-1,
				-7.7752885818481445
			],
			"type":"VEC3"
		},
		{
			"bufferView":1,
			"componentType":5126,
			"count":268,
			"type":"VEC3"
		},
		{
			"bufferView":2,
			"componentType":5126,
			"count":268,
			"type":"VEC2"
		},
		{
			"bufferView":3,
			"componentType":5123,
			"count":528,
			"type":"SCALAR"
		},
		{
			"bufferView":4,
			"componentType":5126,
			"count":108,
			"max":[
				-12.28392219543457,
				8.779794692993164,
				8.244608879089355
			],
			"min":[
				-12.989357948303223,
				-1.0000038146972656,
				4.2396345138549805
			],
			"type":"VEC3"
		},
		{
			"bufferView":5,
			"componentType":5126,
			"count":108,
			"type":"VEC3"
		},
		{
			"bufferView":6,
			"componentType":5126,
			"count":108,
			"type":"VEC2"
		},
		{
			"bufferView":7,
			"componentType":5123,
			"count":246,
			"type":"SCALAR"
		},
		{
			"bufferView":8,
			"componentType":5126,
			"count":152,
			"max":[
				-12.304831504821777,
				4.221059799194336,
				8.244608879089355
			],
			"min":[
				-12.595187187194824,
				-1.0000038146972656,
				4.2396345138549805
			],
			"type":"VEC3"
		},
		{
			"bufferView":9,
			"componentType":5126,
			"count":152,
			"type":"VEC3"
		},
		{
			"bufferView":10,
			"componentType":5126,
			"count":152,
			"type":"VEC2"
		},
		{
			"bufferView":11,
			"componentType":5123,
			"count":252,
			"type":"SCALAR"
		},
		{
			"bufferView":12,
			"componentType":5126,
			"count":4,
			"max":[
				-12.500021934509277,
				8.541735649108887,
				8.244608879089355
			],
			"min":[
				-12.500021934509277,
				4.221057891845703,
				4.2396345138549805
			],
			"type":"VEC3"
		},
		{
			"bufferView":13,
			"componentType":5126,
			"count":4,
			"type":"VEC3"
		},
		{
			"bufferView":14,
			"componentType":5126,
			"count":4,
			"type":"VEC2"
		},
		{
			"bufferView":15,
			"componentType":5123,
			"count":6,
			"type":"SCALAR"
		},
		{
			"bufferView":16,
			"componentType":5126,
			"count":108,
			"max":[
				-12.28392219543457,
				8.77979850769043,
				4.2396345138549805
			],
			"min":[
				-12.989357948303223,
				-1,
				0.23465967178344727
			],
			"type":"VEC3"
		},
		{
			"bufferView":17,
			"componentType":5126,
			"count":108,
			"type":"VEC3"
		},
		{
			"bufferView":18,
			"componentType":5126,
			"count":108,
			"type":"VEC2"
		},
		{
			"bufferView":19,
			"componentType":5126,
			"count":152,
			"max":[
				-12.304831504821777,
				4.221063613891602,
				4.2396345138549805
			],
			"min":[
				-12.595187187194824,
				-1,
				0.23465967178344727
			],
			"type":"VEC3"
		},
		{
			"bufferView":20,
			"componentType":5126,
			"count":152,
			"type":"VEC3"
		},
		{
			"bufferView":21,
			"componentType":5126,
			"count":152,
			"type":"VEC2"
		},
		{
			"bufferView":22,
			"componentType":5126,
			"count":4,
			"max":[
				-12.500021934509277,
				8.541739463806152,
				4.2396345138549805
			],
			"min":[
				-12.500021934509277,
				4.221061706542969,
				0.23465967178344727
			],
			"type":"VEC3"
		},
		{
			"bufferView":23,
			"componentType":5126,
			"count":4,
			"type":"VEC3"
		},
		{
			"bufferView":24,
			"componentType":5126,
			"count":4,
			"type":"VEC2"
		},
		{
			"bufferView":25,
			"componentType":5126,
			"count":108,
			"max":[
				-12.28392219543457,
				8.77979850769043,
				0.23466014862060547
			],
			"min":[
				-12.989357948303223,
				-1,
				-3.7703144550323486
			],
			"type":"VEC3"
		},
		{
			"bufferView":26,
			"componentType":5126,
			"count":108,
			"type":"VEC3"
		},
		{
			"bufferView":27,
			"componentType":5126,
			"count":108,
			"type":"VEC2"
		},
		{
			"bufferView":28,
			"componentType":5126,
			"count":152,
			"max":[
				-12.304831504821777,
				4.221063613891602,
				0.23466014862060547
			],
			"min":[
				-12.595187187194824,
				-1,
				-3.7703144550323486
			],
			"type":"VEC3"
		},
		{
			"bufferView":29,
			"componentType":5126,
			"count":152,
			"type":"VEC3"
		},
		{
			"bufferView":30,
			"componentType":5126,
			"count":152,
			"type":"VEC2"
		},
		{
			"bufferView":31,
			"componentType":5126,
			"count":4,
			"max":[
				-12.500021934509277,
				8.541739463806152,
				0.23466014862060547
			],
			"min":[
				-12.500021934509277,
				4.221061706542969,
				-3.7703144550323486
			],
			"type":"VEC3"
		},
		{
			"bufferView":32,
			"componentType":5126,
			"count":4,
			"type":"VEC3"
		},
		{
			"bufferView":33,
			"componentType":5126,
			"count":4,
			"type":"VEC2"
		},
		{
			"bufferView":34,
			"componentType":5126,
			"count":268,
			"max":[
				-0.28990864753723145,
				8.77979850769043,
				12.98592758178711
			],
			"min":[
				-4.2948832511901855,
				-1,
				12.280491828918457
			],
			"type":"VEC3"
		},
		{
			"bufferView":35,
			"componentType":5126,
			"count":268,
			"type":"VEC3"
		},
		{
			"bufferView":36,
			"componentType":5126,
			"count":268,
			"type":"VEC2"
		},
		{
			"bufferView":37,
			"componentType":5123,
			"count":528,
			"type":"SCALAR"
		},
		{
			"bufferView":38,
			"componentType":5126,
			"count":268,
			"max":[
				-12.28392219543457,
				8.77979850769043,
				-7.775287628173828
			],
			"min":[
				-12.989357948303223,
				-1,
				-11.780261993408203
			],
			"type":"VEC3"
		},
		{
			"bufferView":39,
			"componentType":5126,
			"count":268,
			"type":"VEC3"
		},
		{
			"bufferView":40,
			"componentType":5126,
			"count":268,
			"type":"VEC2"
		},
		{
			"bufferView":41,
			"componentType":5123,
			"count":528,
			"type":"SCALAR"
		},
		{
			"bufferView":42,
			"componentType":5126,
			"count":310,
			"max":[
				-12.28392219543457,
				8.77979850769043,
				12.965018272399902
			],
			"min":[
				-12.989357948303223,
				-1,
				8.244609832763672
			],
			"type":"VEC3"
		},
		{
			"bufferView":43,
			"componentType":5126,
			"count":310,
			"type":"VEC3"
		},
		{
			"bufferView":44,
			"componentType":5126,
			"count":310,
			"type":"VEC2"
		},
		{
			"bufferView":45,
			"componentType":5123,
			"count":624,
			"type":"SCALAR"
		},
		{
			"bufferView":46,
			"componentType":5126,
			"count":268,
			"max":[
				-4.294882774353027,
				8.77979850769043,
				12.98592758178711
			],
			"min":[
				-8.299858093261719,
				-1,
				12.280491828918457
			],
			"type":"VEC3"
		},
		{
			"bufferView":47,
			"componentType":5126,
			"count":268,
			"type":"VEC3"
		},
		{
			"bufferView":48,
			"componentType":5126,
			"count":268,
			"type":"VEC2"
		},
		{
			"bufferView":49,
			"componentType":5126,
			"count":268,
			"max":[
				-8.299856185913086,
				8.77979850769043,
				12.98592758178711
			],
			"min":[
				-12.304830551147461,
				-1,
				12.280491828918457
			],
			"type":"VEC3"
		},
		{
			"bufferView":50,
			"componentType":5126,
			"count":268,
			"type":"VEC3"
		},
		{
			"bufferView":51,
			"componentType":5126,
			"count":268,
			"type":"VEC2"
		},
		{
			"bufferView":52,
			"componentType":5126,
			"count":268,
			"max":[
				3.7150659561157227,
				8.77979850769043,
				12.98592758178711
			],
			"min":[
				-0.289908766746521,
				-1,
				12.280491828918457
			],
			"type":"VEC3"
		},
		{
			"bufferView":53,
			"componentType":5126,
			"count":268,
			"type":"VEC3"
		},
		{
			"bufferView":54,
			"componentType":5126,
			"count":268,
			"type":"VEC2"
		},
		{
			"bufferView":55,
			"componentType":5126,
			"count":268,
			"max":[
				7.720040321350098,
				8.77979850769043,
				12.985925674438477
			],
			"min":[
				3.7150654792785645,
				-1,
				12.280489921569824
			],
			"type":"VEC3"
		},
		{
			"bufferView":56,
			"componentType":5126,
			"count":268,
			"type":"VEC3"
		},
		{
			"bufferView":57,
			"componentType":5126,
			"count":268,
			"type":"VEC2"
		},
		{
			"bufferView":58,
			"componentType":5126,
			"count":310,
			"max":[
				12.440454483032227,
				8.77979850769043,
				12.98592758178711
			],
			"min":[
				7.720045566558838,
				-1,
				12.280491828918457
			],
			"type":"VEC3"
		},
		{
			"bufferView":59,
			"componentType":5126,
			"count":310,
			"type":"VEC3"
		},
		{
			"bufferView":60,
			"componentType":5126,
			"count":310,
			"type":"VEC2"
		},
		{
			"bufferView":61,
			"componentType":5123,
			"count":624,
			"type":"SCALAR"
		},
		{
			"bufferView":62,
			"componentType":5126,
			"count":268,
			"max":[
				12.440454483032227,
				8.77979850769043,
				-3.739408493041992
			],
			"min":[
				11.735017776489258,
				-1,
				-7.744383335113525
			],
			"type":"VEC3"
		},
		{
			"bufferView":63,
			"componentType":5126,
			"count":268,
			"type":"VEC3"
		},
		{
			"bufferView":64,
			"componentType":5126,
			"count":268,
			"type":"VEC2"
		},
		{
			"bufferView":65,
			"componentType":5126,
			"count":268,
			"max":[
				12.440454483032227,
				8.77979850769043,
				4.270542144775391
			],
			"min":[
				11.735017776489258,
				-1,
				0.26556718349456787
			],
			"type":"VEC3"
		},
		{
			"bufferView":66,
			"componentType":5126,
			"count":268,
			"type":"VEC3"
		},
		{
			"bufferView":67,
			"componentType":5126,
			"count":268,
			"type":"VEC2"
		},
		{
			"bufferView":68,
			"componentType":5126,
			"count":310,
			"max":[
				12.440454483032227,
				8.77979850769043,
				-7.744382381439209
			],
			"min":[
				11.735017776489258,
				-1,
				-12.464791297912598
			],
			"type":"VEC3"
		},
		{
			"bufferView":69,
			"componentType":5126,
			"count":310,
			"type":"VEC3"
		},
		{
			"bufferView":70,
			"componentType":5126,
			"count":310,
			"type":"VEC2"
		},
		{
			"bufferView":71,
			"componentType":5123,
			"count":624,
			"type":"SCALAR"
		},
		{
			"bufferView":72,
			"componentType":5126,
			"count":268,
			"max":[
				12.440454483032227,
				8.77979850769043,
				12.280492782592773
			],
			"min":[
				11.735017776489258,
				-1,
				8.275518417358398
			],
			"type":"VEC3"
		},
		{
			"bufferView":73,
			"componentType":5126,
			"count":268,
			"type":"VEC3"
		},
		{
			"bufferView":74,
			"componentType":5126,
			"count":268,
			"type":"VEC2"
		},
		{
			"bufferView":75,
			"componentType":5126,
			"count":268,
			"max":[
				12.440454483032227,
				8.77979850769043,
				0.2655677795410156
			],
			"min":[
				11.735017776489258,
				-1,
				-3.7394070625305176
			],
			"type":"VEC3"
		},
		{
			"bufferView":76,
			"componentType":5126,
			"count":268,
			"type":"VEC3"
		},
		{
			"bufferView":77,
			"componentType":5126,
			"count":268,
			"type":"VEC2"
		},
		{
			"bufferView":78,
			"componentType":5126,
			"count":268,
			"max":[
				12.440454483032227,
				8.77979850769043,
				8.275518417358398
			],
			"min":[
				11.735017776489258,
				-1,
				4.270543575286865
			],
			"type":"VEC3"
		},
		{
			"bufferView":79,
			"componentType":5126,
			"count":268,
			"type":"VEC3"
		},
		{
			"bufferView":80,
			"componentType":5126,
			"count":268,
			"type":"VEC2"
		},
		{
			"bufferView":81,
			"componentType":5126,
			"count":24,
			"max":[
				12.44045352935791,
				-1,
				12.98592758178711
			],
			"min":[
				-12.989357948303223,
				-1.511539340019226,
				-12.485700607299805
			],
			"type":"VEC3"
		},
		{
			"bufferView":82,
			"componentType":5126,
			"count":24,
			"type":"VEC3"
		},
		{
			"bufferView":83,
			"componentType":5126,
			"count":24,
			"type":"VEC2"
		},
		{
			"bufferView":84,
			"componentType":5123,
			"count":36,
			"type":"SCALAR"
		},
		{
			"bufferView":85,
			"componentType":5126,
			"count":346,
			"max":[
				-8.289859771728516,
				8.77979850769043,
				-11.780261993408203
			],
			"min":[
				-13.010268211364746,
				-1,
				-12.70291805267334
			],
			"type":"VEC3"
		},
		{
			"bufferView":86,
			"componentType":5126,
			"count":346,
			"type":"VEC3"
		},
		{
			"bufferView":87,
			"componentType":5126,
			"count":346,
			"type":"VEC2"
		},
		{
			"bufferView":88,
			"componentType":5123,
			"count":720,
			"type":"SCALAR"
		},
		{
			"bufferView":89,
			"componentType":5126,
			"count":268,
			"max":[
				-4.284881114959717,
				8.77979850769043,
				-11.997482299804688
			],
			"min":[
				-8.28985595703125,
				-1,
				-12.70291805267334
			],
			"type":"VEC3"
		},
		{
			"bufferView":90,
			"componentType":5126,
			"count":268,
			"type":"VEC3"
		},
		{
			"bufferView":91,
			"componentType":5126,
			"count":268,
			"type":"VEC2"
		},
		{
			"bufferView":92,
			"componentType":5126,
			"count":268,
			"max":[
				-0.2799067497253418,
				8.77979850769043,
				-11.997482299804688
			],
			"min":[
				-4.284881591796875,
				-1,
				-12.70291805267334
			],
			"type":"VEC3"
		},
		{
			"bufferView":93,
			"componentType":5126,
			"count":268,
			"type":"VEC3"
		},
		{
			"bufferView":94,
			"componentType":5126,
			"count":268,
			"type":"VEC2"
		},
		{
			"bufferView":95,
			"componentType":5126,
			"count":268,
			"max":[
				11.735017776489258,
				8.77979850769043,
				-11.997482299804688
			],
			"min":[
				7.730042457580566,
				-1,
				-12.70291805267334
			],
			"type":"VEC3"
		},
		{
			"bufferView":96,
			"componentType":5126,
			"count":268,
			"type":"VEC3"
		},
		{
			"bufferView":97,
			"componentType":5126,
			"count":268,
			"type":"VEC2"
		},
		{
			"bufferView":98,
			"componentType":5126,
			"count":268,
			"max":[
				7.730043888092041,
				8.77979850769043,
				-11.997482299804688
			],
			"min":[
				3.725069284439087,
				-1,
				-12.70291805267334
			],
			"type":"VEC3"
		},
		{
			"bufferView":99,
			"componentType":5126,
			"count":268,
			"type":"VEC3"
		},
		{
			"bufferView":100,
			"componentType":5126,
			"count":268,
			"type":"VEC2"
		},
		{
			"bufferView":101,
			"componentType":5126,
			"count":268,
			"max":[
				3.725067615509033,
				8.77979850769043,
				-11.997482299804688
			],
			"min":[
				-0.2799069881439209,
				-1,
				-12.70291805267334
			],
			"type":"VEC3"
		},
		{
			"bufferView":102,
			"componentType":5126,
			"count":268,
			"type":"VEC3"
		},
		{
			"bufferView":103,
			"componentType":5126,
			"count":268,
			"type":"VEC2"
		}
	],
	"bufferViews":[
		{
			"buffer":0,
			"byteLength":3216,
			"byteOffset":0,
			"target":34962
		},
		{
			"buffer":0,
			"byteLength":3216,
			"byteOffset":3216,
			"target":34962
		},
		{
			"buffer":0,
			"byteLength":2144,
			"byteOffset":6432,
			"target":34962
		},
		{
			"buffer":0,
			"byteLength":1056,
			"byteOffset":8576,
			"target":34963
		},
		{
			"buffer":0,
			"byteLength":1296,
			"byteOffset":9632,
			"target":34962
		},
		{
			"buffer":0,
			"byteLength":1296,
			"byteOffset":10928,
			"target":34962
		},
		{
			"buffer":0,
			"byteLength":864,
			"byteOffset":12224,
			"target":34962
		},
		{
			"buffer":0,
			"byteLength":492,
			"byteOffset":13088,
			"target":34963
		},
		{
			"buffer":0,
			"byteLength":1824,
			"byteOffset":13580,
			"target":34962
		},
		{
			"buffer":0,
			"byteLength":1824,
			"byteOffset":15404,
			"target":34962
		},
		{
			"buffer":0,
			"byteLength":1216,
			"byteOffset":17228,
			"target":34962
		},
		{
			"buffer":0,
			"byteLength":504,
			"byteOffset":18444,
			"target":34963
		},
		{
			"buffer":0,
			"byteLength":48,
			"byteOffset":18948,
			"target":34962
		},
		{
			"buffer":0,
			"byteLength":48,
			"byteOffset":18996,
			"target":34962
		},
		{
			"buffer":0,
			"byteLength":32,
			"byteOffset":19044,
			"target":34962
		},
		{
			"buffer":0,
			"byteLength":12,
			"byteOffset":19076,
			"target":34963
		},
		{
			"buffer":0,
			"byteLength":1296,
			"byteOffset":19088,
			"target":34962
		},
		{
			"buffer":0,
			"byteLength":1296,
			"byteOffset":20384,
			"target":34962
		},
		{
			"buffer":0,
			"byteLength":864,
			"byteOffset":21680,
			"target":34962
		},
		{
			"buffer":0,
			"byteLength":1824,
			"byteOffset":22544,
			"target":34962
		},
		{
			"buffer":0,
			"byteLength":1824,
			"byteOffset":24368,
			"target":34962
		},
		{
			"buffer":0,
			"byteLength":1216,
			"byteOffset":26192,
			"target":34962
		},
		{
			"buffer":0,
			"byteLength":48,
			"byteOffset":27408,
			"target":34962
		},
		{
			"buffer":0,
			"byteLength":48,
			"byteOffset":27456,
			"target":34962
		},
		{
			"buffer":0,
			"byteLength":32,
			"byteOffset":27504,
			"target":34962
		},
		{
			"buffer":0,
			"byteLength":1296,
			"byteOffset":27536,
			"target":34962
		},
		{
			"buffer":0,
			"byteLength":1296,
			"byteOffset":28832,
			"target":34962
		},
		{
			"buffer":0,
			"byteLength":864,
			"byteOffset":30128,
			"target":34962
		},
		{
			"buffer":0,
			"byteLength":1824,
			"byteOffset":30992,
			"target":34962
		},
		{
			"buffer":0,
			"byteLength":1824,
			"byteOffset":32816,
			"target":34962
		},
		{
			"buffer":0,
			"byteLength":1216,
			"byteOffset":34640,
			"target":34962
		},
		{
			"buffer":0,
			"byteLength":48,
			"byteOffset":35856,
			"target":34962
		},
		{
			"buffer":0,
			"byteLength":48,
			"byteOffset":35904,
			"target":34962
		},
		{
			"buffer":0,
			"byteLength":32,
			"byteOffset":35952,
			"target":34962
		},
		{
			"buffer":0,
			"byteLength":3216,
			"byteOffset":35984,
			"target":34962
		},
		{
			"buffer":0,
			"byteLength":3216,
			"byteOffset":39200,
			"target":34962
		},
		{
			"buffer":0,
			"byteLength":2144,
			"byteOffset":42416,
			"target":34962
		},
		{
			"buffer":0,
			"byteLength":1056,
			"byteOffset":44560,
			"target":34963
		},
		{
			"buffer":0,
			"byteLength":3216,
			"byteOffset":45616,
			"target":34962
		},
		{
			"buffer":0,
			"byteLength":3216,
			"byteOffset":48832,
			"target":34962
		},
		{
			"buffer":0,
			"byteLength":2144,
			"byteOffset":52048,
			"target":34962
		},
		{
			"buffer":0,
			"byteLength":1056,
			"byteOffset":54192,
			"target":34963
		},
		{
			"buffer":0,
			"byteLength":3720,
			"byteOffset":55248,
			"target":34962
		},
		{
			"buffer":0,
			"byteLength":3720,
			"byteOffset":58968,
			"target":34962
		},
		{
			"buffer":0,
			"byteLength":2480,
			"byteOffset":62688,
			"target":34962
		},
		{
			"buffer":0,
			"byteLength":1248,
			"byteOffset":65168,
			"target":34963
		},
		{
			"buffer":0,
			"byteLength":3216,
			"byteOffset":66416,
			"target":34962
		},
		{
			"buffer":0,
			"byteLength":3216,
			"byteOffset":69632,
			"target":34962
		},
		{
			"buffer":0,
			"byteLength":2144,
			"byteOffset":72848,
			"target":34962
		},
		{
			"buffer":0,
			"byteLength":3216,
			"byteOffset":74992,
			"target":34962
		},
		{
			"buffer":0,
			"byteLength":3216,
			"byteOffset":78208,
			"target":34962
		},
		{
			"buffer":0,
			"byteLength":2144,
			"byteOffset":81424,
			"target":34962
		},
		{
			"buffer":0,
			"byteLength":3216,
			"byteOffset":83568,
			"target":34962
		},
		{
			"buffer":0,
			"byteLength":3216,
			"byteOffset":86784,
			"target":34962
		},
		{
			"buffer":0,
			"byteLength":2144,
			"byteOffset":90000,
			"target":34962
		},
		{
			"buffer":0,
			"byteLength":3216,
			"byteOffset":92144,
			"target":34962
		},
		{
			"buffer":0,
			"byteLength":3216,
			"byteOffset":95360,
			"target":34962
		},
		{
			"buffer":0,
			"byteLength":2144,
			"byteOffset":98576,
			"target":34962
		},
		{
			"buffer":0,
			"byteLength":3720,
			"byteOffset":100720,
			"target":34962
		},
		{
			"buffer":0,
			"byteLength":3720,
			"byteOffset":104440,
			"target":34962
		},
		{
			"buffer":0,
			"byteLength":2480,
			"byteOffset":108160,
			"target":34962
		},
		{
			"buffer":0,
			"byteLength":1248,
			"byteOffset":110640,
			"target":34963
		},
		{
			"buffer":0,
			"byteLength":3216,
			"byteOffset":111888,
			"target":34962
		},
		{
			"buffer":0,
			"byteLength":3216,
			"byteOffset":115104,
			"target":34962
		},
		{
			"buffer":0,
			"byteLength":2144,
			"byteOffset":118320,
			"target":34962
		},
		{
			"buffer":0,
			"byteLength":3216,
			"byteOffset":120464,
			"target":34962
		},
		{
			"buffer":0,
			"byteLength":3216,
			"byteOffset":123680,
			"target":34962
		},
		{
			"buffer":0,
			"byteLength":2144,
			"byteOffset":126896,
			"target":34962
		},
		{
			"buffer":0,
			"byteLength":3720,
			"byteOffset":129040,
			"target":34962
		},
		{
			"buffer":0,
			"byteLength":3720,
			"byteOffset":132760,
			"target":34962
		},
		{
			"buffer":0,
			"byteLength":2480,
			"byteOffset":136480,
			"target":34962
		},
		{
			"buffer":0,
			"byteLength":1248,
			"byteOffset":138960,
			"target":34963
		},
		{
			"buffer":0,
			"byteLength":3216,
			"byteOffset":140208,
			"target":34962
		},
		{
			"buffer":0,
			"byteLength":3216,
			"byteOffset":143424,
			"target":34962
		},
		{
			"buffer":0,
			"byteLength":2144,
			"byteOffset":146640,
			"target":34962
		},
		{
			"buffer":0,
			"byteLength":3216,
			"byteOffset":148784,
			"target":34962
		},
		{
			"buffer":0,
			"byteLength":3216,
			"byteOffset":152000,
			"target":34962
		},
		{
			"buffer":0,
			"byteLength":2144,
			"byteOffset":155216,
			"target":34962
		},
		{
			"buffer":0,
			"byteLength":3216,
			"byteOffset":157360,
			"target":34962
		},
		{
			"buffer":0,
			"byteLength":3216,
			"byteOffset":160576,
			"target":34962
		},
		{
			"buffer":0,
			"byteLength":2144,
			"byteOffset":163792,
			"target":34962
		},
		{
			"buffer":0,
			"byteLength":288,
			"byteOffset":165936,
			"target":34962
		},
		{
			"buffer":0,
			"byteLength":288,
			"byteOffset":166224,
			"target":34962
		},
		{
			"buffer":0,
			"byteLength":192,
			"byteOffset":166512,
			"target":34962
		},
		{
			"buffer":0,
			"byteLength":72,
			"byteOffset":166704,
			"target":34963
		},
		{
			"buffer":0,
			"byteLength":4152,
			"byteOffset":166776,
			"target":34962
		},
		{
			"buffer":0,
			"byteLength":4152,
			"byteOffset":170928,
			"target":34962
		},
		{
			"buffer":0,
			"byteLength":2768,
			"byteOffset":175080,
			"target":34962
		},
		{
			"buffer":0,
			"byteLength":1440,
			"byteOffset":177848,
			"target":34963
		},
		{
			"buffer":0,
			"byteLength":3216,
			"byteOffset":179288,
			"target":34962
		},
		{
			"buffer":0,
			"byteLength":3216,
			"byteOffset":182504,
			"target":34962
		},
		{
			"buffer":0,
			"byteLength":2144,
			"byteOffset":185720,
			"target":34962
		},
		{
			"buffer":0,
			"byteLength":3216,
			"byteOffset":187864,
			"target":34962
		},
		{
			"buffer":0,
			"byteLength":3216,
			"byteOffset":191080,
			"target":34962
		},
		{
			"buffer":0,
			"byteLength":2144,
			"byteOffset":194296,
			"target":34962
		},
		{
			"buffer":0,
			"byteLength":3216,
			"byteOffset":196440,
			"target":34962
		},
		{
			"buffer":0,
			"byteLength":3216,
			"byteOffset":199656,
			"target":34962
		},
		{
			"buffer":0,
			"byteLength":2144,
			"byteOffset":202872,
			"target":34962
		},
		{
			"buffer":0,
			"byteLength":3216,
			"byteOffset":205016,
			"target":34962
		},
		{
			"buffer":0,
			"byteLength":3216,
			"byteOffset":208232,
			"target":34962
		},
		{
			"buffer":0,
			"byteLength":2144,
			"byteOffset":211448,
			"target":34962
		},
		{
			"buffer":0,
			"byteLength":3216,
			"byteOffset":213592,
			"target":34962
		},
		{
			"buffer":0,
			"byteLength":3216,
			"byteOffset":216808,
			"target":34962
		},
		{
			"buffer":0,
			"byteLength":2144,
			"byteOffset":220024,
			"target":34962
		}
	],
	"samplers":[
		{
			"magFilter":9729,
			"minFilter":9987
		}
	],
	"buffers":[
		{
			"byteLength":222168,
			"uri":"wall.bin"
		}
	]
}
